HIERARCHY
ROOT Hips
{
	OFFSET 0.00000 0.00000 0.00000
	CHANNELS 6 Xposition Yposition Zposition Zrotation Yrotation Xrotation 
	JOINT LHipJoint
	{
		OFFSET 0 0 0
		CHANNELS 3 Zrotation Yrotation Xrotation
		JOINT LeftHip
		{
			OFFSET 1.76014 -1.80163 0.38499
			CHANNELS 3 Zrotation Yrotation Xrotation
			JOINT LeftKnee
			{
				OFFSET 2.46817 -6.78126 0.00000
				CHANNELS 3 Zrotation Yrotation Xrotation
				JOINT LeftAnkle
				{
					OFFSET 2.79348 -7.67503 0.00000
					CHANNELS 3 Zrotation Yrotation Xrotation
					JOINT LeftToe
					{
						OFFSET 0.09421 -0.25885 1.91403
						CHANNELS 3 Zrotation Yrotation Xrotation
						End Site
						{
							OFFSET 0.00000 -0.00000 0.97975
						}
					}
				}
			}
		}
	}
	JOINT RHipJoint
	{
		OFFSET 0 0 0
		CHANNELS 3 Zrotation Yrotation Xrotation
		JOINT RightHip
		{
			OFFSET -1.77926 -1.80163 0.38499
			CHANNELS 3 Zrotation Yrotation Xrotation
			JOINT RightKnee
			{
				OFFSET -2.51996 -6.92353 0.00000
				CHANNELS 3 Zrotation Yrotation Xrotation
				JOINT RightAnkle
				{
					OFFSET -2.76109 -7.58603 0.00000
					CHANNELS 3 Zrotation Yrotation Xrotation
					JOINT RightToe
					{
						OFFSET -0.08067 -0.22163 1.86812
						CHANNELS 3 Zrotation Yrotation Xrotation
						End Site
						{
							OFFSET -0.00000 -0.00000 0.95558
						}
					}
				}
			}
		}
	}
	JOINT lowerback
	{
		OFFSET 0 0 0
		CHANNELS 3 Zrotation Yrotation Xrotation
		JOINT Chest
		{
			OFFSET 0.05537 1.92033 -0.03713
			CHANNELS 3 Zrotation Yrotation Xrotation
			JOINT Chest2
			{
				OFFSET 0.04452 1.90073 0.10860
				CHANNELS 3 Zrotation Yrotation Xrotation
				JOINT lowerneck
				{
					OFFSET 0 0 0
					CHANNELS 3 Zrotation Yrotation Xrotation
					JOINT Neck
					{
						OFFSET 0.00903 1.74649 0.02074
						CHANNELS 3 Zrotation Yrotation Xrotation
						JOINT Head
						{
							OFFSET -0.08608 1.67844 -0.12081
							CHANNELS 3 Zrotation Yrotation Xrotation
							End Site
							{
								OFFSET -0.03521 1.83380 -0.05059
							}
						}
					}
				}
				JOINT LeftCollar
				{
					OFFSET 0 0 0
					CHANNELS 3 Zrotation Yrotation Xrotation
					JOINT LeftShoulder
					{
						OFFSET 3.28197 0.84325 -0.19106
CHANNELS 3 Zrotation Xrotation Yrotation
						JOINT LeftElbow
						{
OFFSET 0 -5.243180 -0.000000
CHANNELS 3 Zrotation Xrotation Yrotation
							JOINT LeftWrist
							{
OFFSET 0 -2.989990 0.000000
CHANNELS 3 Zrotation Xrotation Yrotation
								JOINT lhand
								{
									OFFSET 0 0 0
CHANNELS 3 Zrotation Xrotation Yrotation
									JOINT LFingers
									{
OFFSET 0 -0.726740 0.000000
CHANNELS 3 Zrotation Xrotation Yrotation
										End Site
										{
OFFSET 0 -0.585920 0.000000
										}
									}
								}
								JOINT LThumb
								{
OFFSET 0 0.000000 0.000000
CHANNELS 3 Zrotation Xrotation Yrotation
									End Site
									{
OFFSET 0 -0.594870 0.594870
									}
								}
							}
						}
					}
				}
				JOINT RightCollar
				{
					OFFSET 0 0 0
					CHANNELS 3 Zrotation Yrotation Xrotation
					JOINT RightShoulder
					{
						OFFSET -3.30963 0.78377 0.14264
CHANNELS 3 Zrotation Xrotation Yrotation
						JOINT RightElbow
						{
OFFSET 0 -5.370450 0.000000
CHANNELS 3 Zrotation Xrotation Yrotation
							JOINT RightWrist
							{
OFFSET 0 -2.927920 0.000000
CHANNELS 3 Zrotation Xrotation Yrotation
								JOINT rhand
								{
									OFFSET 0 0 0
CHANNELS 3 Zrotation Xrotation Yrotation
									JOINT RFingers
									{
OFFSET 0 -0.784500 0.000000
CHANNELS 3 Zrotation Xrotation Yrotation
										End Site
										{
OFFSET 0 -0.632480 0.000000
										}
									}
								}
								JOINT RThumb
								{
OFFSET 0 0.000000 0.000000
CHANNELS 3 Zrotation Xrotation Yrotation
									End Site
									{
OFFSET 0 -0.642140 0.642140
									}
								}
							}
						}
					}
				}
			}
		}
	}
}
MOTION
Frames: 9
Frame Time: 0.008333333333333333
0.776913 18.182413 0.424200 2.535201 9.124732 26.226138 0.000000 0.000000 0.000000 -12.194865 -27.502202 -26.648346 0.709297 5.382639 15.003215 -0.271064 9.309833 -5.046227 0.771093 -5.607148 -15.648736 0.000000 0.000000 0.000000 6.908166 22.649572 -29.029466 -1.224592 -7.018698 19.770837 -0.024575 -20.007421 -28.463000 -1.263924 -7.126161 20.089765 9.138707 -1.215759 14.481673 5.792422 0.737924 -2.834468 1.038609 -0.011579 -11.330513 1.405558 -3.197009 -10.456821 -13.030627 -5.159600 -9.380657 -4.265805 -2.564983 -1.425049 0.000000 0.000000 0.000000 -2.015303 15.306366 29.285459 33.524887 -43.729611 13.783563 37.618966 -18.277343 -33.854301 0.000000 0.000000 0.000000 -7.125000 0.000000 0.000000 7.829817 70.098189 -4.706610 0.000000 0.000000 0.000000 -8.105250 11.129123 -51.795673 -45.446080 -50.985112 -22.584807 -11.175189 156.187856 -8.641798 0.000000 0.000000 0.000000 7.125000 0.000000 0.000000 11.305396 21.240215 6.568247
0.744027 18.192556 0.449290 2.699929 8.395284 25.698870 0.000000 0.000000 0.000000 -12.550911 -27.923258 -24.992863 0.620079 5.039304 14.020610 -0.373101 10.827504 -5.354596 0.678729 -5.267520 -14.673212 0.000000 0.000000 0.000000 6.866113 23.154944 -28.101045 -1.188959 -6.919537 19.477092 -0.003383 -20.079381 -28.404059 -1.276666 -7.160707 20.192352 8.620206 -1.074196 13.778886 5.495696 0.712220 -2.967565 0.993340 0.000910 -11.057835 1.436980 -3.108155 -10.368099 -13.085486 -4.986455 -8.880844 -4.285985 -2.495652 -1.279078 0.000000 0.000000 0.000000 -2.654510 15.107341 28.562432 33.119156 -43.421322 13.503863 38.096284 -19.115731 -33.483377 0.000000 0.000000 0.000000 -7.125000 0.000000 0.000000 8.759073 69.847673 -5.219450 0.000000 0.000000 0.000000 -7.051037 10.568647 -50.524793 -45.633327 -51.074993 -22.730396 -10.986587 158.065910 -8.499882 0.000000 0.000000 0.000000 7.125000 0.000000 0.000000 11.448212 21.388668 6.615404
0.701037 18.196461 0.465191 2.120670 7.975053 24.953485 0.000000 0.000000 0.000000 -12.058294 -27.926909 -24.303747 0.658227 5.189204 14.448904 -0.424295 11.565582 -5.989509 0.705429 -5.368224 -14.961963 0.000000 0.000000 0.000000 7.731710 24.008587 -26.675961 -1.092514 -6.642317 18.660058 -0.020549 -20.317295 -28.859589 -1.402843 -7.492205 21.181938 8.796907 -1.051350 13.379278 5.359167 0.727476 -3.202349 0.743287 -0.014497 -11.083982 1.595631 -3.119499 -10.070113 -13.231714 -4.966206 -8.318641 -4.352188 -2.501479 -1.163724 0.000000 0.000000 0.000000 -2.868573 14.854794 29.147650 32.256832 -42.750953 12.914870 37.186013 -19.401463 -33.719415 0.000000 0.000000 0.000000 -7.125000 0.000000 0.000000 7.169064 69.813298 -4.262435 0.000000 0.000000 0.000000 -6.254867 9.964682 -49.282039 -44.917685 -50.728103 -22.175028 -11.274403 159.843887 -8.285990 0.000000 0.000000 0.000000 7.125000 0.000000 0.000000 11.254649 21.591983 6.445969
0.667140 18.213137 0.508304 1.957534 7.703485 24.076142 0.000000 0.000000 0.000000 -12.286808 -27.925187 -22.887802 0.651272 5.162212 14.371693 -0.468765 12.160382 -6.417932 0.711647 -5.391275 -15.028082 0.000000 0.000000 0.000000 8.427296 24.311841 -24.861916 -0.991239 -6.336643 17.764337 -0.075946 -20.346038 -29.300100 -1.546380 -7.849328 22.257376 8.727571 -1.040987 12.747879 5.076819 0.639703 -3.476991 0.489760 -0.067228 -11.018641 1.829058 -3.140364 -9.571162 -13.454673 -4.979436 -7.831291 -4.449532 -2.514228 -1.108299 0.000000 0.000000 0.000000 -2.706443 15.192984 29.053803 31.664022 -42.277700 12.514195 37.375073 -19.191846 -34.192737 0.000000 0.000000 0.000000 -7.125000 0.000000 0.000000 7.287468 70.386306 -4.426354 0.000000 0.000000 0.000000 -5.673527 10.019524 -47.431320 -43.717817 -50.124642 -21.250126 -11.731537 160.897369 -8.249256 0.000000 0.000000 0.000000 7.125000 0.000000 0.000000 10.928803 21.612487 6.247266
0.622409 18.232308 0.543824 1.820272 6.985556 23.370418 0.000000 0.000000 0.000000 -12.571411 -27.642745 -21.419399 0.599339 4.955978 13.782934 -0.539696 13.024829 -6.864600 0.660229 -5.196156 -14.469017 0.000000 0.000000 0.000000 8.737387 25.341652 -23.466165 -0.935795 -6.161895 17.254910 -0.190421 -20.328451 -30.082173 -2.097179 -9.065531 26.000532 8.125926 -0.955847 11.845834 4.923873 0.523665 -3.525769 0.664573 -0.079147 -10.536460 1.712821 -3.064365 -9.332551 -13.406379 -4.840695 -7.601379 -4.409181 -2.442439 -1.064633 0.000000 0.000000 0.000000 -2.965804 15.348787 29.427329 31.602112 -42.227541 12.472647 36.246553 -20.911522 -34.059806 0.000000 0.000000 0.000000 -7.125000 0.000000 0.000000 5.494966 69.880347 -3.272854 0.000000 0.000000 0.000000 -5.411526 9.900410 -44.912084 -43.091130 -49.798264 -20.770277 -12.159746 160.964196 -8.040336 0.000000 0.000000 0.000000 7.125000 0.000000 0.000000 10.632477 21.806603 6.024010
0.570896 18.237729 0.574485 1.599851 6.395606 22.449689 0.000000 0.000000 0.000000 -12.707582 -27.664964 -20.019201 0.600221 4.959531 13.793257 -0.630798 14.053924 -7.419249 0.723466 -5.435011 -15.153576 0.000000 0.000000 0.000000 9.542123 25.735924 -21.925848 -0.877380 -5.971495 16.701826 -0.112093 -20.660188 -29.977247 -1.882478 -8.614910 24.599150 7.683402 -0.947361 10.897688 4.718633 0.308911 -3.301514 0.702856 -0.141215 -9.727569 1.742788 -3.090775 -9.174830 -13.253420 -4.878596 -7.626906 -4.363332 -2.455986 -1.098975 0.000000 0.000000 0.000000 -3.154863 15.311630 29.161570 32.202345 -42.707855 12.877911 35.554851 -20.969296 -34.757006 0.000000 0.000000 0.000000 -7.125000 0.000000 0.000000 4.018886 70.404252 -2.439543 0.000000 0.000000 0.000000 -4.954606 9.674669 -41.382282 -43.100728 -49.803369 -20.777672 -12.730629 161.107830 -8.231219 0.000000 0.000000 0.000000 7.125000 0.000000 0.000000 10.211910 21.593396 5.828251
0.523963 18.239361 0.593398 1.141821 5.779700 21.674194 0.000000 0.000000 0.000000 -12.529853 -27.410382 -19.234443 0.638494 5.112334 14.229173 -0.681766 14.642429 -8.061232 0.730977 -5.461811 -15.230856 0.000000 0.000000 0.000000 10.537655 25.757353 -20.727065 -0.805507 -5.727932 15.997128 0.003998 -20.731448 -29.251777 -1.856629 -8.560769 24.430660 7.654770 -0.855752 10.471950 4.464603 0.368935 -3.499101 0.431534 -0.122932 -9.689168 1.518914 -3.284110 -8.430975 -12.438929 -5.091496 -7.630722 -4.476382 -2.547465 -1.398716 0.000000 0.000000 0.000000 -3.110924 15.930359 28.079624 33.183661 -43.470619 13.548278 34.570000 -22.956135 -35.290991 0.000000 0.000000 0.000000 -7.125000 0.000000 0.000000 2.112704 70.651139 -1.293564 0.000000 0.000000 0.000000 -4.464454 10.365018 -37.299524 -43.253932 -49.883801 -20.894716 -14.165833 161.182985 -8.075178 0.000000 0.000000 0.000000 7.125000 0.000000 0.000000 9.184655 21.693970 5.204811
0.479598 18.243286 0.614637 0.788546 5.184024 20.854006 0.000000 0.000000 0.000000 -12.466452 -27.438125 -18.203641 0.670918 5.237961 14.588443 -0.726583 15.291275 -9.432381 0.457101 -4.336029 -12.024137 0.000000 0.000000 0.000000 11.483100 25.599470 -19.476581 -0.748019 -5.524352 15.410285 0.080317 -20.619371 -28.534316 -1.859023 -8.563426 24.440603 7.444959 -0.842030 9.790711 4.232325 0.258113 -3.509914 0.306567 -0.164128 -9.299952 1.035470 -3.695855 -8.314732 -11.584990 -5.514521 -7.063736 -4.072226 -2.766107 -1.220778 0.000000 0.000000 0.000000 -3.155469 16.032023 27.030966 34.729130 -44.617568 14.622843 34.372446 -24.564124 -35.657209 0.000000 0.000000 0.000000 -7.125000 0.000000 0.000000 1.549880 70.972055 -0.960159 0.000000 0.000000 0.000000 -3.934427 10.656244 -33.620672 -43.534677 -50.030096 -21.109684 -14.839675 161.034334 -8.546643 0.000000 0.000000 0.000000 7.125000 0.000000 0.000000 8.682476 21.184170 5.014843
0.432799 18.242895 0.630399 0.561750 4.877164 20.125694 0.000000 0.000000 0.000000 -12.474109 -27.408855 -17.313656 0.690532 5.312396 14.801748 -0.768193 15.771958 -10.009885 0.398549 -4.053325 -11.226756 0.000000 0.000000 0.000000 12.281818 25.588957 -18.247166 -0.692232 -5.318830 14.820051 0.199621 -20.935031 -28.087922 -1.622867 -8.031870 22.811073 7.202772 -0.864221 9.032886 4.048326 0.100662 -3.571447 0.259715 -0.225721 -8.925518 0.875388 -4.222906 -8.030631 -11.030405 -6.143693 -6.519588 -3.842846 -3.088702 -1.111523 0.000000 0.000000 0.000000 -3.258280 15.958626 26.145341 36.803751 -46.057763 16.098691 34.330690 -25.339710 -36.180858 0.000000 0.000000 0.000000 -7.125000 0.000000 0.000000 1.105751 71.507130 -0.697913 0.000000 0.000000 0.000000 -3.427586 10.784288 -30.586862 -43.730147 -50.131025 -21.259595 -14.814446 160.951664 -8.824301 0.000000 0.000000 0.000000 7.125000 0.000000 0.000000 8.691872 20.901937 5.076588
